HIERARCHY
ROOT Hips
{
	OFFSET 0.000000 0.000000 0.000000
	CHANNELS 6 Xposition Yposition Zposition Xrotation Yrotation Zrotation
	JOINT LeftUpLeg_virtual
	{
		OFFSET 0.000000 0.000000 0.000000
		CHANNELS 3 Xrotation Yrotation Zrotation
		JOINT LeftUpLeg
		{
			OFFSET 10.205400 -3.823500 0.155100
			CHANNELS 3 Xrotation Yrotation Zrotation
			JOINT LeftLeg
			{
				OFFSET 0.708757 -12.982077 0.567790
				CHANNELS 3 Xrotation Yrotation Zrotation
				JOINT LeftFoot
				{
					OFFSET -0.708756 -10.717838 -2.184338
					CHANNELS 3 Xrotation Yrotation Zrotation
					JOINT LeftToeBase
					{
						OFFSET 0.108149 -7.191104 7.560241
						CHANNELS 3 Xrotation Yrotation Zrotation
						JOINT LeftToe_End
						{
							OFFSET 0.070230 0.081724 4.490308
							CHANNELS 3 Xrotation Yrotation Zrotation
							End Site
							{
								OFFSET 0 0 0
							}
						}
					}
				}
			}
		}
	}
	JOINT RightUpLeg_virtual
	{
		OFFSET 0.000000 0.000000 0.000000
		CHANNELS 3 Xrotation Yrotation Zrotation
		JOINT RightUpLeg
		{
			OFFSET -10.205400 -3.823500 0.005500
			CHANNELS 3 Xrotation Yrotation Zrotation
			JOINT RightLeg
			{
				OFFSET -0.708756 -12.982134 0.610632
				CHANNELS 3 Xrotation Yrotation Zrotation
				JOINT RightFoot
				{
					OFFSET 0.708754 -10.717769 -1.945823
					CHANNELS 3 Xrotation Yrotation Zrotation
					JOINT RightToeBase
					{
						OFFSET -0.108140 -7.191069 7.372968
						CHANNELS 3 Xrotation Yrotation Zrotation
						JOINT RightToe_End
						{
							OFFSET -0.070227 0.081735 4.479403
							CHANNELS 3 Xrotation Yrotation Zrotation
							End Site
							{
								OFFSET 0 0 0
							}
						}
					}
				}
			}
		}
	}
	JOINT Spine_virtual
	{
		OFFSET 0.000000 0.000000 0.000000
		CHANNELS 3 Xrotation Yrotation Zrotation
		JOINT Spine
		{
			OFFSET 0.000000 6.876099 0.125700
			CHANNELS 3 Xrotation Yrotation Zrotation
			JOINT Spine1
			{
				OFFSET 0.000000 5.730043 0.104720
				CHANNELS 3 Xrotation Yrotation Zrotation
				JOINT Spine1_split
				{
					OFFSET 0.000000 5.730043 0.104720
					CHANNELS 3 Xrotation Yrotation Zrotation
					JOINT Spine2
					{
						OFFSET 0.000000 5.730043 0.104720
						CHANNELS 3 Xrotation Yrotation Zrotation
						JOINT Neck_virtual
						{
							OFFSET 0.000000 0.000000 0.000000
							CHANNELS 3 Xrotation Yrotation Zrotation
							JOINT Neck
							{
								OFFSET 0.000000 10.314075 0.188496
								CHANNELS 3 Xrotation Yrotation Zrotation
								JOINT Head
								{
									OFFSET 0.000000 7.643700 -2.377400
									CHANNELS 3 Xrotation Yrotation Zrotation
									JOINT HeadTop_End
									{
										OFFSET 0.000000 43.788605 -13.619600
										CHANNELS 3 Xrotation Yrotation Zrotation
										End Site
										{
											OFFSET 0 0 0
										}
									}
								}
							}
						}
						JOINT LeftShoulder_virtual
						{
							OFFSET 0.000000 0.000000 0.000000
							CHANNELS 3 Xrotation Yrotation Zrotation
							JOINT LeftShoulder
							{
								OFFSET 2.196100 4.412489 0.087492
								CHANNELS 3 Xrotation Yrotation Zrotation
								JOINT LeftShoulder_split
								{
									OFFSET 2.196100 4.412489 0.087492
									CHANNELS 3 Xrotation Yrotation Zrotation
									JOINT LeftArm
									{
										OFFSET 8.771219 -2.981674 -0.026999
										CHANNELS 3 Xrotation Yrotation Zrotation
										JOINT LeftForeArm
										{
											OFFSET 8.512804 0.000000 -0.000000
											CHANNELS 3 Xrotation Yrotation Zrotation
											JOINT LeftHand
											{
												OFFSET 18.484802 0.000000 -0.000000
												CHANNELS 3 Xrotation Yrotation Zrotation
												End Site
												{
													OFFSET 0 0 0
												}
											}
										}
									}
								}
							}
						}
						JOINT RightShoulder_virtual
						{
							OFFSET 0.000000 0.000000 0.000000
							CHANNELS 3 Xrotation Yrotation Zrotation
							JOINT RightShoulder
							{
								OFFSET -2.196100 4.412496 0.070690
								CHANNELS 3 Xrotation Yrotation Zrotation
								JOINT RightShoulder_split
								{
									OFFSET -2.196100 4.412496 0.070690
									CHANNELS 3 Xrotation Yrotation Zrotation
									JOINT RightArm
									{
										OFFSET -8.771282 -2.981682 -0.094208
										CHANNELS 3 Xrotation Yrotation Zrotation
										JOINT RightForeArm
										{
											OFFSET -8.494598 0.000000 0.000000
											CHANNELS 3 Xrotation Yrotation Zrotation
											JOINT RightHand
											{
												OFFSET -18.483803 0.000000 0.000001
												CHANNELS 3 Xrotation Yrotation Zrotation
												End Site
												{
													OFFSET 0 0 0
												}
											}
										}
									}
								}
							}
						}
					}
				}
			}
		}
	}
}
MOTION
Frames: 8
Frame Time: 0.03333333
0.213796 27.315706 0.172148 0.000000 0.000000 0.000000 11.578269 6.998838 -1.084169 -55.798380 1.806704 3.895065 75.465927 7.064669 -0.420524 -29.756361 7.879534 -8.168157 -3.965730 -0.014651 1.274805 0.000000 0.000000 0.000000 11.903171 6.322432 -1.013669 -48.594778 -12.741365 -6.593141 76.517271 -5.737827 -5.884077 -35.495544 -10.672021 4.941469 2.498224 1.403105 -0.271258 0.000000 0.000000 0.000000 11.971962 4.140785 -1.061736 9.024226 0.923606 1.199093 8.899449 1.876956 -0.422245 1.030450 -1.052737 0.384092 0.000000 0.000000 0.000000 9.385353 0.838929 0.056671 -10.081988 -1.395057 6.020154 -25.783112 1.222350 -7.090824 0.000000 0.000000 0.000000 9.424432 0.577617 -0.014151 3.442097 -24.648268 3.657665 -2.542839 0.227687 -3.414228 -62.897436 -24.631486 -65.065393 177.341531 -72.480902 175.795518 0.000000 0.000000 0.000000 8.469604 0.577389 0.162269 0.004653 12.244276 11.202013 0.242298 7.463985 0.788667 -62.950008 31.960706 50.636362 -178.675126 69.781283 177.971917 0.000000 0.000000 0.000000 
0.211725 27.314583 0.171484 0.000000 0.000000 0.000000 11.559538 6.975858 -1.073744 -55.793657 1.825511 3.905073 75.487278 7.064304 -0.417629 -29.755880 7.888986 -8.180125 -3.966531 -0.015007 1.268371 0.000000 0.000000 0.000000 11.883051 6.299442 -1.003906 -48.589426 -12.740177 -6.583250 76.516676 -5.725716 -5.891229 -35.506592 -10.672423 4.932290 2.494915 1.403541 -0.272363 0.000000 0.000000 0.000000 11.957350 4.123889 -1.055895 9.025493 0.907953 1.210069 8.918364 1.860548 -0.416184 1.028103 -1.049625 0.383321 0.000000 0.000000 0.000000 9.404605 0.820139 0.062215 -10.084343 -1.375635 6.003654 -25.798239 1.289044 -7.109086 0.000000 0.000000 0.000000 9.447956 0.560598 -0.008597 3.442127 -24.656744 3.657264 -2.545568 0.244000 -3.393582 -62.918569 -24.577853 -65.083793 177.336409 -72.524724 175.806569 0.000000 0.000000 0.000000 8.493663 0.560132 0.167042 -0.001763 12.288963 11.173303 0.226197 7.449019 0.779811 -62.976175 31.925865 50.617917 -178.692570 69.841102 177.997093 0.000000 0.000000 0.000000 
0.209996 27.312857 0.170908 0.000000 0.000000 0.000000 11.536913 6.958698 -1.067796 -55.792035 1.840523 3.918395 75.513246 7.064161 -0.412191 -29.750094 7.901347 -8.194225 -3.966598 -0.014550 1.259941 0.000000 0.000000 0.000000 11.861620 6.274667 -0.997277 -48.583095 -12.742521 -6.569962 76.522195 -5.717423 -5.896358 -35.515235 -10.671436 4.919005 2.493005 1.404355 -0.273045 0.000000 0.000000 0.000000 11.939434 4.104110 -1.050983 9.028597 0.896172 1.220567 8.933705 1.848256 -0.410104 1.019278 -1.038530 0.380545 0.000000 0.000000 0.000000 9.416443 0.805098 0.067721 -10.082479 -1.357553 5.989544 -25.803693 1.344700 -7.121247 0.000000 0.000000 0.000000 9.468459 0.546280 -0.002438 3.441548 -24.659764 3.651977 -2.560887 0.248223 -3.382340 -62.956729 -24.517025 -65.085965 177.331382 -72.576408 175.815695 0.000000 0.000000 0.000000 8.512250 0.545709 0.172567 -0.008395 12.329584 11.147179 0.215478 7.438762 0.776544 -63.029020 31.871070 50.625625 -178.693130 69.899541 178.001328 0.000000 0.000000 0.000000 
0.208519 27.310541 0.170918 0.000000 0.000000 0.000000 11.511255 6.946364 -1.062182 -55.788753 1.851722 3.926264 75.537821 7.064671 -0.403697 -29.742523 7.915649 -8.212230 -3.968750 -0.013974 1.253477 0.000000 0.000000 0.000000 11.837549 6.248875 -0.989534 -48.575520 -12.745565 -6.559011 76.537761 -5.711934 -5.900546 -35.520624 -10.668259 4.905246 2.492126 1.405655 -0.273771 0.000000 0.000000 0.000000 11.916628 4.080808 -1.042040 9.031740 0.887859 1.228158 8.943763 1.839977 -0.404276 1.006174 -1.027817 0.379553 0.000000 0.000000 0.000000 9.423076 0.795241 0.072794 -10.070804 -1.343659 5.975761 -25.805536 1.374450 -7.125194 0.000000 0.000000 0.000000 9.484200 0.536099 0.004247 3.439967 -24.653952 3.648554 -2.577294 0.235354 -3.385937 -62.997983 -24.467382 -65.064109 177.332502 -72.572003 175.825229 0.000000 0.000000 0.000000 8.523917 0.535599 0.178418 -0.014518 12.358827 11.119434 0.214519 7.441351 0.785160 -63.090307 31.807201 50.668153 -178.686928 69.903236 177.996328 0.000000 0.000000 0.000000 
0.206930 27.307932 0.172249 0.000000 0.000000 0.000000 11.483674 6.936608 -1.053028 -55.778439 1.860688 3.922982 75.556133 7.065661 -0.392254 -29.736578 7.930358 -8.233582 -3.973705 -0.013851 1.251787 0.000000 0.000000 0.000000 11.811277 6.226399 -0.977886 -48.567774 -12.746566 -6.554524 76.562814 -5.706955 -5.906466 -35.523489 -10.662715 4.897288 2.490530 1.407428 -0.274869 0.000000 0.000000 0.000000 11.889334 4.058291 -1.028188 9.033589 0.881661 1.230357 8.948660 1.835346 -0.399532 0.999211 -1.017358 0.379519 0.000000 0.000000 0.000000 9.425976 0.791044 0.077397 -10.051285 -1.336242 5.961181 -25.809610 1.373656 -7.121072 0.000000 0.000000 0.000000 9.493974 0.530969 0.011100 3.438577 -24.642534 3.651759 -2.586626 0.214778 -3.398979 -63.023337 -24.440295 -65.016789 177.335371 -72.491673 175.828084 0.000000 0.000000 0.000000 8.528831 0.530008 0.183872 -0.019015 12.375496 11.090244 0.217984 7.448605 0.801588 -63.147640 31.751613 50.737579 -178.677462 69.843117 177.987749 0.000000 0.000000 0.000000 
0.205259 27.305269 0.174509 0.000000 0.000000 0.000000 11.456962 6.926465 -1.039197 -55.758779 1.869263 3.907526 75.566597 7.068376 -0.379769 -29.734931 7.944676 -8.254827 -3.978839 -0.014343 1.254212 0.000000 0.000000 0.000000 11.784380 6.208189 -0.962015 -48.560435 -12.743961 -6.556770 76.593762 -5.701486 -5.915736 -35.525812 -10.655241 4.896917 2.487268 1.409469 -0.276328 0.000000 0.000000 0.000000 11.861009 4.040972 -1.010689 9.034938 0.876529 1.227390 8.949737 1.833517 -0.396317 0.998758 -1.008058 0.377313 0.000000 0.000000 0.000000 9.427731 0.792006 0.081112 -10.029152 -1.335995 5.948441 -25.823014 1.344926 -7.113348 0.000000 0.000000 0.000000 9.498378 0.530489 0.016395 3.437462 -24.632148 3.661303 -2.581283 0.201260 -3.415005 -63.023132 -24.431819 -64.951418 177.341245 -72.361742 175.825120 0.000000 0.000000 0.000000 8.529387 0.529577 0.188044 -0.022361 12.381240 11.060574 0.234434 7.462119 0.815915 -63.195786 31.717240 50.815269 -178.670768 69.755827 177.982053 0.000000 0.000000 0.000000 
0.203322 27.303144 0.177481 0.000000 0.000000 0.000000 11.433393 6.916336 -1.022219 -55.732991 1.877731 3.882708 75.570702 7.073982 -0.367755 -29.738118 7.958905 -8.272392 -3.981290 -0.014693 1.257211 0.000000 0.000000 0.000000 11.759920 6.197137 -0.944080 -48.553752 -12.738784 -6.563738 76.625263 -5.696241 -5.929051 -35.530887 -10.646763 4.901508 2.482794 1.411565 -0.277144 0.000000 0.000000 0.000000 11.835145 4.031021 -0.992828 9.036603 0.871909 1.221194 8.948054 1.833900 -0.394769 1.007417 -1.004149 0.376613 0.000000 0.000000 0.000000 9.429613 0.795948 0.083389 -10.012991 -1.342024 5.940107 -25.846759 1.300473 -7.106284 0.000000 0.000000 0.000000 9.499782 0.533041 0.018879 3.437055 -24.625460 3.675997 -2.559338 0.200379 -3.425639 -63.010059 -24.432879 -64.885568 177.343553 -72.230466 175.814465 0.000000 0.000000 0.000000 8.528952 0.533348 0.189912 -0.024624 12.381083 11.035370 0.254969 7.472784 0.816310 -63.240797 31.715560 50.880910 -178.664758 69.694513 177.975865 0.000000 0.000000 0.000000 
0.201007 27.301559 0.179449 0.000000 0.000000 0.000000 11.413951 6.908432 -1.005968 -55.706357 1.885315 3.854520 75.571214 7.081660 -0.356314 -29.745641 7.971811 -8.285354 -3.980054 -0.014497 1.258177 0.000000 0.000000 0.000000 11.741724 6.195524 -0.928382 -48.550228 -12.731890 -6.571339 76.652939 -5.693157 -5.945081 -35.540978 -10.639003 4.906256 2.479828 1.413053 -0.276548 0.000000 0.000000 0.000000 11.814806 4.030788 -0.979119 9.040747 0.868058 1.214129 8.945097 1.836099 -0.394765 1.021327 -1.004251 0.377014 0.000000 0.000000 0.000000 9.432034 0.800915 0.084561 -10.010254 -1.351650 5.940304 -25.876634 1.255885 -7.104508 0.000000 0.000000 0.000000 9.498794 0.537070 0.018434 3.436951 -24.626006 3.688060 -2.529592 0.212926 -3.425623 -63.003058 -24.426848 -64.837831 177.337529 -72.152144 175.794849 0.000000 0.000000 0.000000 8.528719 0.538815 0.189691 -0.025806 12.379597 11.023587 0.274115 7.475067 0.804060 -63.290787 31.753829 50.921560 -178.649117 69.707292 177.957574 0.000000 0.000000 0.000000 
